<svg width="28" height="34" viewBox="0 0 28 34" fill="currentColor" xmlns="http://www.w3.org/2000/svg">
<path d="M0.885853 28.8684V6.89652C1.22132 7.09058 1.61079 7.20165 2.02621 7.20165H22.5527C25.0719 7.20165 27.1141 9.24385 27.1141 11.7631V28.8684C27.1141 31.3877 25.0719 33.4298 22.5527 33.4298H5.44729C2.92808 33.4298 0.885853 31.3877 0.885853 28.8684ZM7.15782 15.0415C6.1344 15.0415 5.30474 15.8712 5.30474 16.8946C5.30474 17.918 6.1344 18.7477 7.15782 18.7477H20.8421C21.8655 18.7477 22.6952 17.918 22.6952 16.8946C22.6952 15.8712 21.8655 15.0415 20.8421 15.0415H7.15782ZM7.15782 21.0284C6.1344 21.0284 5.30474 21.8581 5.30474 22.8815C5.30474 23.9049 6.1344 24.7346 7.15782 24.7346H16.5658C17.5892 24.7346 18.4189 23.9049 18.4189 22.8815C18.4189 21.8581 17.5892 21.0284 16.5658 21.0284H7.15782Z" stroke="#696969" stroke-width="1.14036"/>
<path d="M23.693 3.73389V6.17546C23.3242 6.10056 22.9428 6.06129 22.5527 6.06129H2.02621C1.39642 6.06129 0.885853 5.55072 0.885853 4.92093V4.7994C0.885853 4.17139 1.34762 3.63897 1.9693 3.55016L20.439 0.911641L20.3584 0.347502L20.439 0.91164C22.1564 0.666283 23.693 1.99896 23.693 3.73389Z" stroke="#696969" stroke-width="1.14036"/>
</svg>
