<svg width="34" height="34" viewBox="0 0 44 44" fill="none" xmlns="http://www.w3.org/2000/svg">
<path fill-rule="evenodd" clip-rule="evenodd" d="M5.48181 40.8351C8.00883 43.011 11.7148 43.011 19.1268 43.011H23.8842C31.2961 43.011 35.0021 43.011 37.5292 40.8351C40.056 38.6592 40.5802 35.0171 41.6285 27.7327L41.6286 27.7318L42.228 23.5655C43.0441 17.8943 43.4521 15.0588 42.2897 12.6344C41.1276 10.2101 38.6538 8.7364 33.7064 5.78926L33.7058 5.78887L30.7275 4.0148C26.2345 1.33827 23.9879 0 21.5055 0C19.0231 0 16.7765 1.33827 12.2834 4.0148L9.30523 5.78887L9.30513 5.78893C4.35738 8.73628 1.8835 10.21 0.721223 12.6344C-0.441054 15.0588 -0.0330669 17.8942 0.782925 23.5654L0.782944 23.5655L1.38245 27.7318C2.43065 35.0168 2.95476 38.6591 5.48181 40.8351ZM19.8926 34.4088C19.8926 35.2996 20.6148 36.0217 21.5055 36.0217C22.3963 36.0217 23.1184 35.2996 23.1184 34.4088V27.9571C23.1184 27.0664 22.3963 26.3442 21.5055 26.3442C20.6148 26.3442 19.8926 27.0664 19.8926 27.9571V34.4088Z" fill="currentColor"/>
</svg>
