<svg width="34" height="34" viewBox="0 0 38 47" fill="none" xmlns="http://www.w3.org/2000/svg">
<path fill-rule="evenodd" clip-rule="evenodd" d="M29.3572 11.8981C29.3572 19.4063 24.8217 25.85 18.7822 25.85C12.738 25.85 8.20715 19.4063 8.20715 11.8957C8.20715 4.3898 12.1082 0 18.7822 0C25.4562 0 29.3572 4.38745 29.3572 11.8981ZM0.221853 42.6337C1.1266 43.71 5.0229 47 18.7822 47C32.5414 47 36.4354 43.71 37.3425 42.636C37.4266 42.5328 37.4887 42.4135 37.5251 42.2854C37.5615 42.1573 37.5713 42.0231 37.554 41.8911C37.3472 39.8184 35.4813 30.55 18.7822 30.55C2.08305 30.55 0.217153 39.8184 0.00800287 41.8911C-0.00901601 42.0233 0.00117467 42.1576 0.03795 42.2857C0.0747254 42.4138 0.137309 42.5307 0.221853 42.6337Z" fill="currentColor"/>
</svg>
